<svg id="Mobile_Phone" data-name="Mobile Phone" xmlns="http://www.w3.org/2000/svg" width="35" height="35" viewBox="0 0 35 35">
  <rect id="Rectangle_8" data-name="Rectangle 8" width="35" height="35" fill="rgba(255,255,255,0)"/>
  <path id="Exclusion_1" data-name="Exclusion 1" d="M-4607.181-602.435h-7.9a1.777,1.777,0,0,1-1.775-1.775v-12.884h-.044a.1.1,0,0,1-.095-.095v-1.54a.093.093,0,0,1,.095-.094h.044v-.382h-.044a.093.093,0,0,1-.095-.094v-1.541a.093.093,0,0,1,.095-.094h.044v-.693h-.044a.1.1,0,0,1-.095-.095v-.789a.1.1,0,0,1,.095-.095h.044v-1.368a1.777,1.777,0,0,1,1.775-1.775h7.9a1.778,1.778,0,0,1,1.776,1.775v3.662a.091.091,0,0,1,.07.086v2.495a.091.091,0,0,1-.07.085v13.438A1.778,1.778,0,0,1-4607.181-602.435Zm-6.569-1.907a.251.251,0,0,0-.25.25.25.25,0,0,0,.25.249h5.5a.249.249,0,0,0,.249-.249.25.25,0,0,0-.249-.25Z" transform="translate(4628 631.843)"/>
</svg>
