<svg id="Office_Phone" data-name="Office Phone" xmlns="http://www.w3.org/2000/svg" width="35" height="35" viewBox="0 0 35 35">
  <rect id="Rectangle_7" data-name="Rectangle 7" width="35" height="35" fill="rgba(255,255,255,0)"/>
  <g id="Group_48" data-name="Group 48" transform="translate(7 6.487)">
    <path id="Path_19" data-name="Path 19" d="M96.617,145.411a1.152,1.152,0,0,0-1.022.227l-1.333,1.089a1.152,1.152,0,0,1-1.343.089,12.063,12.063,0,0,1-3.754-3.754,1.152,1.152,0,0,1,.089-1.343l1.089-1.333a1.151,1.151,0,0,0,.227-1.022,5.626,5.626,0,0,0-2.97-3.771,1.153,1.153,0,0,0-1.069.033,17.9,17.9,0,0,0-2.054,1.3,1.161,1.161,0,0,0-.46,1.137,18.246,18.246,0,0,0,13.9,13.9,1.161,1.161,0,0,0,1.137-.46,17.9,17.9,0,0,0,1.3-2.054,1.154,1.154,0,0,0,.033-1.069,5.626,5.626,0,0,0-3.771-2.97Z" transform="translate(-83.999 -132.227)"/>
    <path id="Path_21" data-name="Path 21" d="M330.387,82.95a.522.522,0,1,0,.061,1.041,6.731,6.731,0,0,1,7.123,7.123.521.521,0,0,0,.49.551h.031a.522.522,0,0,0,.52-.491,7.775,7.775,0,0,0-8.226-8.226Z" transform="translate(-321.35 -80.165)"/>
    <path id="Path_22" data-name="Path 22" d="M335.267,157.69l.049,0a.522.522,0,0,0,.519-.473,5.023,5.023,0,0,0-5.47-5.47.522.522,0,1,0,.1,1.039,3.98,3.98,0,0,1,4.335,4.335.521.521,0,0,0,.471.568Z" transform="translate(-321.346 -146.19)"/>
  </g>
</svg>
